<svg xmlns="http://www.w3.org/2000/svg" viewBox="0 0 100 100" preserveAspectRatio="xMidYMid" width="200" height="200" style="shape-rendering: auto; display: block; background: rgb(255, 255, 255);" xmlns:xlink="http://www.w3.org/1999/xlink"><g><g transform="rotate(0 50 50)">
  <rect fill="#0448ca" height="12" width="6" ry="2.4" rx="2.4" y="24" x="47">
    <animate repeatCount="indefinite" begin="-3.3950617283950617s" dur="3.7037037037037033s" keyTimes="0;1" values="1;0" attributeName="opacity"></animate>
  </rect>
</g><g transform="rotate(30 50 50)">
  <rect fill="#6a89db" height="12" width="6" ry="2.4" rx="2.4" y="24" x="47">
    <animate repeatCount="indefinite" begin="-3.0864197530864197s" dur="3.7037037037037033s" keyTimes="0;1" values="1;0" attributeName="opacity"></animate>
  </rect>
</g><g transform="rotate(60 50 50)">
  <rect fill="#a677d6" height="12" width="6" ry="2.4" rx="2.4" y="24" x="47">
    <animate repeatCount="indefinite" begin="-2.7777777777777777s" dur="3.7037037037037033s" keyTimes="0;1" values="1;0" attributeName="opacity"></animate>
  </rect>
</g><g transform="rotate(90 50 50)">
  <rect fill="#c96eb5" height="12" width="6" ry="2.4" rx="2.4" y="24" x="47">
    <animate repeatCount="indefinite" begin="-2.4691358024691357s" dur="3.7037037037037033s" keyTimes="0;1" values="1;0" attributeName="opacity"></animate>
  </rect>
</g><g transform="rotate(120 50 50)">
  <rect fill="#ec5870" height="12" width="6" ry="2.4" rx="2.4" y="24" x="47">
    <animate repeatCount="indefinite" begin="-2.1604938271604937s" dur="3.7037037037037033s" keyTimes="0;1" values="1;0" attributeName="opacity"></animate>
  </rect>
</g><g transform="rotate(150 50 50)">
  <rect fill="#e91c24" height="12" width="6" ry="2.4" rx="2.4" y="24" x="47">
    <animate repeatCount="indefinite" begin="-1.8518518518518516s" dur="3.7037037037037033s" keyTimes="0;1" values="1;0" attributeName="opacity"></animate>
  </rect>
</g><g transform="rotate(180 50 50)">
  <rect fill="#0448ca" height="12" width="6" ry="2.4" rx="2.4" y="24" x="47">
    <animate repeatCount="indefinite" begin="-1.5432098765432098s" dur="3.7037037037037033s" keyTimes="0;1" values="1;0" attributeName="opacity"></animate>
  </rect>
</g><g transform="rotate(210 50 50)">
  <rect fill="#6a89db" height="12" width="6" ry="2.4" rx="2.4" y="24" x="47">
    <animate repeatCount="indefinite" begin="-1.2345679012345678s" dur="3.7037037037037033s" keyTimes="0;1" values="1;0" attributeName="opacity"></animate>
  </rect>
</g><g transform="rotate(240 50 50)">
  <rect fill="#a677d6" height="12" width="6" ry="2.4" rx="2.4" y="24" x="47">
    <animate repeatCount="indefinite" begin="-0.9259259259259258s" dur="3.7037037037037033s" keyTimes="0;1" values="1;0" attributeName="opacity"></animate>
  </rect>
</g><g transform="rotate(270 50 50)">
  <rect fill="#c96eb5" height="12" width="6" ry="2.4" rx="2.4" y="24" x="47">
    <animate repeatCount="indefinite" begin="-0.6172839506172839s" dur="3.7037037037037033s" keyTimes="0;1" values="1;0" attributeName="opacity"></animate>
  </rect>
</g><g transform="rotate(300 50 50)">
  <rect fill="#ec5870" height="12" width="6" ry="2.4" rx="2.4" y="24" x="47">
    <animate repeatCount="indefinite" begin="-0.30864197530864196s" dur="3.7037037037037033s" keyTimes="0;1" values="1;0" attributeName="opacity"></animate>
  </rect>
</g><g transform="rotate(330 50 50)">
  <rect fill="#e91c24" height="12" width="6" ry="2.4" rx="2.4" y="24" x="47">
    <animate repeatCount="indefinite" begin="0s" dur="3.7037037037037033s" keyTimes="0;1" values="1;0" attributeName="opacity"></animate>
  </rect>
</g><g></g></g><!-- [ldio] generated by https://loading.io --></svg>