<?xml version="1.0" standalone="no"?>
<!DOCTYPE svg PUBLIC "-//W3C//DTD SVG 20010904//EN"
 "http://www.w3.org/TR/2001/REC-SVG-20010904/DTD/svg10.dtd">
<svg version="1.0" xmlns="http://www.w3.org/2000/svg"
 width="648.000000pt" height="1152.000000pt" viewBox="0 0 648.000000 1152.000000"
 preserveAspectRatio="xMidYMid meet">

<g transform="translate(0.000000,1152.000000) scale(0.100000,-0.100000)"
fill="#000000" stroke="none">
<path d="M0 9984 l0 -1536 64 -162 c73 -182 225 -566 541 -1366 40 -102 103
-261 139 -355 37 -93 71 -179 76 -190 5 -11 26 -63 45 -115 20 -52 42 -108 49
-125 7 -16 21 -52 31 -80 9 -27 21 -59 27 -70 5 -12 10 -28 12 -37 1 -9 8 -23
15 -32 7 -9 10 -16 6 -16 -4 0 -2 -7 5 -15 7 -8 9 -15 5 -15 -4 0 -2 -7 5 -15
7 -8 9 -15 5 -15 -4 0 -2 -7 5 -16 11 -12 11 -15 -1 -12 -8 2 -13 -3 -12 -9 2
-7 -3 -12 -10 -10 -6 1 -11 -3 -10 -9 1 -6 -4 -11 -12 -11 -8 0 -13 3 -12 6 1
3 -3 6 -8 6 -5 0 -9 -3 -8 -7 2 -5 -3 -7 -10 -5 -6 1 -11 -4 -10 -10 2 -7 -3
-12 -10 -10 -6 1 -11 -3 -10 -9 1 -6 -4 -11 -12 -11 -8 0 -13 3 -12 6 1 3 -3
6 -8 6 -5 0 -9 -3 -8 -7 2 -5 -3 -7 -10 -5 -6 1 -11 -3 -10 -9 1 -6 -4 -11
-12 -11 -8 0 -13 3 -12 6 1 3 -3 6 -8 6 -5 0 -9 -3 -8 -7 2 -5 -3 -7 -10 -5
-6 1 -11 -4 -10 -10 2 -7 -3 -12 -10 -10 -6 1 -11 -3 -10 -9 1 -6 -4 -11 -12
-11 -8 0 -13 3 -12 6 1 3 -3 6 -8 6 -6 0 -9 -3 -8 -7 2 -5 -3 -7 -10 -5 -6 1
-11 -4 -10 -10 2 -7 -3 -12 -10 -10 -6 1 -11 -3 -10 -9 1 -6 -4 -11 -12 -11
-8 0 -13 3 -12 6 1 3 -2 6 -8 6 -5 0 -9 -3 -8 -7 2 -5 -3 -7 -10 -5 -6 1 -11
-3 -10 -9 1 -6 -4 -11 -12 -11 -8 0 -13 3 -12 6 1 3 -2 6 -8 6 -5 0 -9 -3 -8
-7 2 -5 -3 -7 -10 -5 -6 1 -11 -4 -10 -10 2 -7 -3 -12 -10 -10 -6 1 -11 -3
-10 -9 1 -6 -4 -11 -12 -11 -8 0 -13 3 -12 6 1 3 -3 6 -8 6 -5 0 -9 -3 -8 -7
2 -5 -3 -7 -10 -5 -6 1 -11 -4 -10 -10 2 -7 -3 -12 -10 -10 -6 1 -11 -3 -10
-9 1 -6 -4 -11 -12 -11 -8 0 -13 3 -12 6 1 3 -3 6 -8 6 -5 0 -9 -3 -8 -7 2 -5
-3 -7 -10 -5 -6 1 -11 -4 -10 -10 2 -7 -3 -12 -10 -10 -6 1 -11 -3 -10 -9 1
-6 -4 -11 -12 -11 -8 0 -13 4 -12 8 1 4 -2 7 -8 7 -5 0 -9 -4 -8 -9 2 -5 -3
-8 -10 -6 -6 1 -11 -3 -10 -9 1 -6 -4 -11 -12 -11 -8 0 -13 4 -12 8 1 4 -2 7
-8 7 -5 0 -9 -4 -8 -9 2 -5 -3 -8 -10 -6 -6 1 -11 -4 -10 -10 2 -7 -3 -12 -10
-10 -6 1 -11 -3 -10 -9 1 -6 -4 -11 -12 -11 -8 0 -13 4 -12 8 1 4 -2 7 -8 7
-5 0 -9 -4 -8 -9 2 -5 -3 -8 -10 -6 -6 1 -11 -4 -10 -10 2 -7 -3 -12 -10 -10
-6 1 -11 -3 -10 -9 1 -6 -4 -11 -12 -11 -8 0 -13 3 -12 6 1 3 -2 6 -8 6 -5 0
-9 -3 -8 -7 2 -5 -3 -7 -10 -5 -6 1 -11 -4 -10 -10 2 -7 -3 -12 -10 -10 -6 1
-11 -3 -10 -9 1 -6 -4 -11 -12 -11 -8 0 -13 3 -12 6 1 3 -3 6 -8 6 -6 0 -9 -3
-8 -7 2 -5 -3 -7 -10 -5 -6 1 -11 -3 -10 -9 1 -6 -4 -11 -11 -11 -7 0 -13 6
-13 13 0 7 4 12 8 11 4 -1 7 3 7 8 0 6 -5 9 -11 7 -6 -2 -3 6 7 17 11 12 16
21 11 21 -4 0 -2 7 5 15 7 8 17 12 23 8 6 -4 7 -1 2 7 -5 8 -4 11 3 6 6 -3 13
-2 17 4 4 6 11 8 16 4 5 -3 7 -9 4 -14 -3 -5 0 -12 6 -16 8 -5 9 -3 4 6 -6 9
-4 11 5 5 9 -6 11 -4 5 5 -5 8 -4 11 3 6 7 -4 10 1 7 14 -3 13 0 18 7 14 7 -4
8 -3 4 4 -4 7 1 10 14 7 11 -2 18 0 15 5 -3 5 4 7 15 5 13 -3 18 0 14 7 -5 7
-2 8 6 3 9 -6 11 -4 5 5 -6 9 -4 11 5 5 8 -5 11 -4 6 3 -3 6 1 9 11 7 10 -1
24 3 32 9 10 7 13 7 8 0 -3 -6 0 -11 8 -11 8 0 13 5 12 11 -1 6 12 11 30 10
17 0 31 4 30 10 -1 6 12 11 30 10 18 0 30 3 27 7 -2 4 0 10 6 14 6 4 7 11 4
17 -5 7 -2 8 6 3 9 -6 11 -4 5 5 -6 9 -4 11 5 5 8 -5 11 -4 6 3 -3 6 1 9 11 7
10 -1 24 3 32 9 12 9 13 8 6 -3 -5 -10 -4 -12 4 -7 6 4 8 12 5 18 -5 7 -2 8 6
3 9 -6 11 -4 5 5 -6 9 -4 11 5 5 8 -5 11 -4 6 3 -3 6 1 9 11 7 10 -1 24 3 32
9 12 9 13 8 6 -3 -6 -10 -4 -12 5 -6 9 6 11 4 5 -6 -8 -12 -6 -12 8 0 9 7 15
17 12 21 -3 5 -1 11 5 15 5 3 10 -2 10 -11 0 -16 15 -11 15 4 1 16 17 32 27
26 6 -4 8 -3 5 3 -4 6 9 9 33 8 22 -1 37 2 34 6 -2 4 0 10 6 14 6 4 8 10 5 15
-3 4 3 7 12 5 10 -1 24 3 32 9 12 9 13 8 6 -3 -5 -10 -4 -12 4 -7 6 4 8 12 5
18 -5 7 -2 8 6 3 9 -6 11 -4 5 5 -6 9 -4 11 5 5 8 -5 11 -4 6 3 -3 6 1 9 11 7
10 -1 24 3 32 9 12 9 13 8 6 -3 -6 -10 -4 -12 5 -6 9 6 11 4 5 -6 -7 -11 -6
-12 6 -3 8 6 22 10 32 9 10 -2 14 1 11 7 -5 7 -2 8 6 3 9 -6 11 -4 5 5 -5 8
-4 11 3 6 7 -4 10 1 7 14 -3 13 0 18 7 14 7 -4 8 -3 4 4 -4 7 1 10 13 7 17 -3
21 9 11 35 -1 3 -2 8 -2 11 1 3 -5 6 -13 6 -8 0 -13 -5 -12 -11 1 -6 -4 -10
-10 -9 -7 2 -12 0 -10 -5 1 -4 -3 -7 -8 -7 -5 0 -9 3 -8 6 1 3 -4 6 -12 6 -8
0 -13 -5 -12 -11 1 -6 -4 -10 -10 -9 -7 2 -12 -3 -10 -10 1 -6 -4 -11 -10 -10
-7 2 -12 0 -10 -5 1 -4 -2 -7 -8 -7 -5 0 -9 3 -8 6 1 3 -4 6 -12 6 -8 0 -13
-5 -12 -11 1 -6 -4 -10 -10 -9 -7 2 -12 0 -10 -5 1 -4 -3 -7 -8 -7 -5 0 -9 3
-8 6 1 3 -4 6 -12 6 -8 0 -13 -5 -12 -11 1 -6 -4 -10 -10 -9 -7 2 -12 -3 -10
-10 1 -6 -4 -11 -10 -10 -7 2 -12 0 -10 -5 1 -4 -2 -7 -8 -7 -5 0 -9 3 -8 6 1
3 -4 6 -12 6 -8 0 -13 -5 -12 -11 1 -6 -4 -10 -10 -9 -7 2 -12 -3 -10 -10 1
-6 -4 -11 -10 -10 -7 2 -12 0 -10 -5 1 -4 -3 -7 -8 -7 -5 0 -9 3 -8 6 1 3 -4
6 -12 6 -8 0 -13 -5 -12 -11 1 -6 -4 -10 -10 -9 -7 2 -12 -3 -10 -10 1 -6 -4
-11 -10 -10 -7 2 -12 0 -10 -5 1 -4 -2 -7 -8 -7 -5 0 -9 3 -8 6 1 3 -4 6 -12
6 -8 0 -13 -5 -12 -11 1 -6 -4 -10 -10 -9 -7 2 -12 0 -10 -5 1 -4 -3 -7 -8 -7
-6 0 -9 3 -8 6 1 3 -4 6 -12 6 -8 0 -13 -5 -12 -11 1 -6 -4 -10 -10 -9 -7 2
-12 -3 -10 -10 1 -6 -4 -11 -10 -10 -7 2 -12 0 -10 -5 1 -4 -2 -7 -8 -7 -5 0
-9 3 -8 6 1 3 -4 6 -12 6 -8 0 -13 -5 -12 -11 1 -6 -4 -10 -10 -9 -7 2 -12 -3
-10 -10 1 -6 -4 -11 -10 -10 -7 2 -12 -1 -10 -6 1 -5 -2 -9 -8 -9 -5 0 -9 3
-8 7 1 4 -4 8 -12 8 -8 0 -13 -5 -12 -11 1 -6 -4 -10 -10 -9 -7 2 -12 -1 -10
-6 1 -5 -2 -9 -8 -9 -5 0 -9 3 -8 7 1 4 -4 8 -12 8 -8 0 -13 -5 -12 -11 1 -6
-4 -10 -10 -9 -7 2 -12 -3 -10 -10 1 -6 -4 -11 -10 -10 -7 2 -12 0 -10 -5 1
-4 -2 -7 -8 -7 -5 0 -9 3 -8 6 1 3 -4 6 -12 6 -8 0 -13 -5 -12 -11 1 -6 -4
-10 -10 -9 -7 2 -12 -3 -10 -10 1 -6 -4 -11 -10 -10 -7 2 -12 0 -10 -5 1 -4
-3 -7 -8 -7 -5 0 -9 3 -8 6 1 3 -4 6 -12 6 -8 0 -13 -5 -12 -11 1 -6 -4 -10
-10 -9 -7 2 -12 -3 -10 -10 1 -6 -4 -11 -10 -10 -7 2 -12 0 -10 -5 1 -4 -3 -7
-8 -7 -6 0 -9 3 -8 6 1 3 -4 6 -11 6 -7 0 -13 -6 -13 -13 0 -7 3 -12 6 -11 3
1 6 -3 6 -8 0 -5 -3 -9 -6 -8 -3 1 -6 -4 -6 -12 0 -8 4 -12 9 -9 4 3 8 -2 8
-11 0 -9 -4 -13 -10 -10 -6 4 -10 -923 -10 -2694 l0 -2701 3240 0 3240 0 0
5185 c-1 3355 -4 5186 -11 5190 -5 4 -6 12 -2 18 11 17 11 57 1 63 -5 3 -4 12
2 19 8 9 8 15 0 20 -6 3 -8 10 -6 14 3 4 -1 8 -9 8 -8 0 -13 -4 -12 -8 1 -4
-2 -7 -8 -7 -5 0 -9 3 -8 7 1 4 -4 8 -12 8 -8 0 -13 -4 -12 -8 1 -4 -2 -7 -8
-7 -5 0 -9 4 -8 9 2 5 -3 8 -10 6 -6 -1 -11 3 -10 9 1 6 -4 11 -12 11 -8 0
-13 -4 -12 -8 1 -4 -2 -7 -8 -7 -5 0 -9 4 -8 9 2 5 -3 8 -10 6 -6 -1 -11 3
-10 9 1 6 -4 11 -12 11 -8 0 -13 -4 -12 -8 1 -4 -2 -7 -8 -7 -5 0 -9 4 -8 9 2
5 -3 8 -10 6 -6 -1 -11 3 -10 9 1 6 -4 11 -12 11 -8 0 -13 -4 -12 -8 1 -4 -2
-7 -8 -7 -5 0 -9 3 -8 7 1 4 -4 8 -12 8 -8 0 -13 -4 -12 -8 1 -4 -2 -7 -8 -7
-5 0 -9 4 -8 9 2 5 -3 8 -10 6 -6 -1 -11 3 -10 9 1 6 -4 11 -12 11 -8 0 -13
-4 -12 -8 1 -4 -2 -7 -8 -7 -5 0 -9 4 -8 9 2 5 -3 8 -10 6 -6 -1 -11 3 -10 9
1 6 -4 11 -12 11 -8 0 -13 -4 -12 -8 1 -4 -2 -7 -8 -7 -5 0 -9 4 -8 9 2 5 -3
8 -10 6 -6 -1 -11 3 -10 9 1 6 -4 11 -12 11 -8 0 -13 -4 -12 -8 1 -4 -2 -7 -8
-7 -5 0 -9 3 -8 7 1 4 -4 8 -12 8 -8 0 -13 -4 -12 -8 1 -4 -2 -7 -8 -7 -5 0
-9 4 -8 9 2 5 -3 8 -10 6 -6 -1 -11 3 -10 9 1 6 -4 11 -12 11 -8 0 -13 -4 -12
-8 1 -4 -2 -7 -8 -7 -5 0 -9 4 -8 9 2 5 -3 8 -10 6 -6 -1 -11 3 -10 9 1 6 -4
11 -12 11 -8 0 -13 -4 -12 -8 1 -4 -2 -7 -8 -7 -5 0 -9 4 -8 9 2 5 -3 8 -10 6
-6 -1 -11 3 -10 9 1 6 -4 11 -12 11 -8 0 -13 -4 -12 -8 1 -4 -2 -7 -8 -7 -5 0
-9 3 -8 7 1 4 -4 8 -12 8 -8 0 -13 -4 -12 -8 1 -4 -2 -7 -8 -7 -5 0 -9 4 -8 9
2 5 -3 8 -10 6 -6 -1 -11 3 -10 9 1 6 -4 11 -12 11 -8 0 -13 -4 -12 -8 1 -4
-2 -7 -8 -7 -5 0 -9 4 -8 9 2 5 -3 8 -10 6 -6 -1 -11 3 -10 9 1 6 -4 11 -12
11 -8 0 -13 -3 -12 -6 1 -3 -2 -6 -8 -6 -5 0 -9 3 -8 6 1 3 -4 6 -12 6 -8 0
-13 -3 -12 -6 1 -3 -3 -6 -8 -6 -5 0 -9 3 -8 7 2 5 -3 7 -10 5 -6 -1 -11 4 -9
11 1 8 -2 11 -8 7 -5 -3 -10 1 -10 9 0 8 5 18 10 21 6 3 10 15 10 26 0 10 5
19 11 19 5 0 7 4 4 10 -3 5 0 20 6 32 7 13 13 30 14 38 1 8 47 149 103 313
l100 297 -2894 0 -2894 0 0 -1536z m5564 715 c-8 -14 -25 1 -18 14 4 7 3 8 -2
4 -5 -5 -10 -13 -10 -18 -1 -5 -3 -11 -4 -14 -2 -5 -5 -15 -9 -31 0 -3 -6 -2
-11 1 -8 5 -7 11 1 21 6 8 8 14 5 14 -4 0 -4 6 1 13 4 6 8 15 9 20 1 4 2 10 3
14 0 3 10 -2 21 -12 11 -10 17 -22 14 -26z m40 0 c-3 -5 -10 -7 -15 -3 -5 3
-8 0 -7 -7 2 -7 -3 -14 -9 -15 -7 -1 -16 -2 -19 -3 -4 0 -1 -7 5 -15 7 -8 21
-13 32 -11 12 3 17 0 13 -7 -4 -6 -3 -8 4 -4 6 3 13 2 17 -4 4 -6 11 -7 17 -4
7 5 8 2 3 -7 -5 -8 -5 -11 0 -7 4 4 15 2 23 -5 13 -10 14 -9 7 3 -7 12 -6 13
7 3 8 -7 19 -9 23 -5 5 4 5 0 0 -8 -5 -8 -5 -12 0 -8 4 4 15 2 23 -5 13 -10
14 -9 7 2 -6 10 -4 12 5 6 8 -5 11 -4 7 2 -3 5 0 10 8 10 8 0 11 -5 8 -10 -3
-6 -1 -7 5 -3 6 3 13 2 17 -3 3 -5 14 -8 25 -6 13 3 18 0 14 -7 -4 -6 -3 -8 4
-4 6 3 13 2 17 -4 4 -6 11 -7 17 -4 7 5 8 2 3 -6 -5 -8 -4 -11 3 -6 6 3 13 2
17 -4 4 -6 10 -8 15 -5 5 3 12 0 16 -6 4 -7 3 -9 -4 -5 -6 3 -13 2 -16 -3 -11
-17 11 -22 24 -6 10 12 16 13 28 3 13 -11 14 -11 7 1 -6 10 -4 12 5 6 8 -5 11
-4 7 2 -3 5 0 10 8 10 8 0 11 -5 8 -10 -4 -6 -1 -7 7 -2 9 6 11 4 5 -5 -6 -9
-4 -11 5 -5 9 6 11 4 5 -5 -6 -9 -4 -11 5 -5 9 6 11 4 5 -6 -6 -11 -5 -12 5
-2 11 10 17 10 29 0 12 -10 13 -9 6 3 -7 12 -6 13 7 3 8 -7 19 -9 23 -5 5 4 5
1 0 -7 -5 -9 -4 -12 3 -7 6 3 13 2 17 -3 3 -5 14 -8 25 -6 12 2 18 0 15 -6 -4
-5 -3 -8 2 -7 4 2 8 -1 8 -7 0 -5 -4 -9 -8 -7 -5 1 -6 -2 -2 -8 3 -6 10 -8 15
-5 5 3 11 1 15 -5 4 -6 11 -8 16 -4 6 4 6 11 -1 19 -7 8 -7 15 -1 19 5 4 12 2
16 -3 3 -5 14 -8 25 -6 13 3 18 0 14 -7 -4 -6 -3 -8 4 -4 6 3 13 2 17 -3 3 -5
14 -8 25 -6 14 3 18 0 14 -8 -4 -7 -4 -9 1 -5 4 4 15 2 23 -5 13 -10 14 -9 7
2 -6 10 -4 12 5 6 8 -5 11 -4 7 2 -3 5 0 10 8 10 8 0 11 -5 8 -10 -4 -6 -1 -7
7 -2 9 6 11 4 5 -5 -6 -9 -4 -11 5 -5 9 6 11 4 5 -5 -6 -9 -4 -11 5 -5 9 6 11
4 5 -6 -6 -11 -5 -12 5 -2 11 10 17 10 29 0 12 -10 13 -9 6 2 -5 9 -4 12 2 8
5 -3 10 0 10 8 0 8 -5 11 -11 8 -6 -4 -4 2 4 12 8 10 10 16 3 12 -6 -4 -14 -3
-17 2 -11 18 11 21 26 3 17 -21 18 -67 1 -67 -7 0 -13 -4 -13 -10 0 -5 5 -10
12 -10 14 0 19 -73 6 -81 -5 -3 -4 -12 2 -19 8 -9 8 -15 0 -20 -6 -4 -9 -1 -8
7 2 7 -3 12 -9 11 -7 -2 -12 0 -10 5 1 4 -2 7 -8 7 -5 0 -9 -3 -8 -6 1 -3 -4
-6 -12 -6 -8 0 -13 4 -12 8 1 4 -2 7 -8 7 -5 0 -9 -3 -8 -7 1 -4 -4 -8 -12 -8
-8 0 -13 5 -12 11 1 6 -4 10 -11 8 -6 -1 -11 1 -10 5 2 5 -1 8 -7 8 -5 0 -9
-3 -8 -6 1 -3 -4 -6 -12 -6 -8 0 -13 5 -12 11 1 6 -4 10 -11 8 -6 -1 -11 2
-10 7 2 5 -1 9 -7 9 -5 0 -9 -3 -8 -7 1 -4 -4 -8 -12 -8 -8 0 -13 5 -12 11 1
6 -4 10 -11 8 -6 -1 -11 2 -10 7 2 5 -1 9 -7 9 -5 0 -9 -3 -8 -7 1 -4 -4 -8
-12 -8 -8 0 -13 4 -12 8 1 4 -2 7 -8 7 -5 0 -9 -3 -8 -7 1 -4 -4 -8 -12 -8 -8
0 -13 5 -12 11 1 6 -4 10 -11 8 -6 -1 -11 2 -10 7 2 5 -1 9 -7 9 -5 0 -9 -3
-8 -7 1 -4 -4 -8 -12 -8 -8 0 -13 5 -12 11 1 6 -4 10 -11 8 -6 -1 -11 2 -10 7
2 5 -1 9 -7 9 -5 0 -9 -3 -8 -7 1 -4 -4 -8 -12 -8 -8 0 -13 5 -12 11 1 6 -4
10 -11 8 -6 -1 -11 1 -10 5 2 5 -1 8 -7 8 -5 0 -9 -3 -8 -6 1 -3 -4 -6 -12 -6
-8 0 -13 3 -12 6 1 3 -2 6 -8 6 -5 0 -9 -3 -8 -6 1 -3 -4 -6 -12 -6 -8 0 -13
5 -12 11 1 6 -4 10 -11 9 -6 -2 -11 0 -10 5 2 4 -1 7 -7 7 -5 0 -9 -3 -8 -6 1
-3 -4 -6 -12 -6 -8 0 -13 5 -12 11 1 6 -4 10 -10 9 -7 -2 -12 1 -10 6 1 5 -2
9 -8 9 -5 0 -9 -3 -8 -7 1 -4 -4 -8 -12 -8 -8 0 -13 5 -12 11 1 6 -4 10 -10 9
-7 -2 -12 0 -10 5 1 4 -2 7 -8 7 -5 0 -9 -3 -8 -6 1 -3 -4 -6 -12 -6 -8 0 -14
3 -13 6 2 20 -5 22 -23 5 -15 -14 -20 -15 -17 -4 2 8 -3 14 -9 13 -7 -2 -12 0
-10 5 1 4 -2 7 -8 7 -5 0 -9 -3 -8 -6 1 -3 -4 -6 -12 -6 -8 0 -13 5 -12 11 1
6 -4 10 -10 9 -7 -2 -12 0 -10 5 1 4 -2 7 -8 7 -5 0 -9 -3 -8 -6 1 -3 -4 -6
-12 -6 -8 0 -13 4 -12 8 1 4 -2 6 -8 6 -5 -1 -9 -5 -8 -8 1 -3 -4 -6 -12 -6
-8 0 -13 5 -12 11 1 6 -4 10 -10 9 -7 -2 -12 0 -12 5 4 21 -3 23 -23 6 -12
-10 -18 -14 -15 -7 4 6 3 15 -3 18 -7 4 -7 11 -2 18 5 7 8 20 7 29 -2 9 3 22
10 28 8 6 11 19 8 27 -5 12 -2 15 10 10 15 -6 33 8 37 28 1 6 6 9 10 8 4 -1
16 7 25 17 17 19 41 18 29 -1z m60 -21 c-3 -4 -1 -7 4 -6 6 2 10 -1 11 -7 1
-5 -8 -10 -18 -10 -11 0 -22 -3 -26 -6 -3 -4 8 -5 24 -4 17 1 28 -1 26 -6 -3
-4 4 -6 15 -4 11 2 18 1 16 -4 -6 -9 60 -8 70 1 12 13 26 -3 15 -16 -8 -10 -4
-12 17 -10 15 1 29 3 32 4 3 1 8 2 11 2 3 -1 6 5 6 13 0 8 -3 14 -6 13 -16 -1
-22 3 -16 13 5 7 13 4 26 -7 10 -9 16 -21 13 -26 -3 -4 -2 -7 3 -6 4 2 9 -1
11 -7 1 -5 -7 -10 -17 -10 -11 0 -22 -3 -25 -7 -3 -5 -3 -6 1 -3 3 3 12 0 20
-6 7 -6 13 -8 13 -4 0 4 8 1 17 -6 9 -8 14 -9 10 -3 -3 6 0 11 8 11 8 0 12 -3
10 -7 -5 -9 62 -6 71 2 12 13 26 -3 14 -17 -8 -10 -4 -12 20 -10 16 1 27 -1
25 -6 -3 -4 4 -6 15 -4 11 2 18 0 15 -5 -3 -5 4 -7 15 -5 11 2 18 0 15 -5 -3
-5 4 -7 15 -5 11 2 18 0 15 -5 -3 -5 4 -7 15 -5 11 2 18 0 15 -5 -3 -5 4 -7
15 -5 11 2 18 0 16 -4 -3 -4 12 -7 34 -6 22 1 37 -2 34 -6 -2 -4 5 -6 16 -4
11 2 18 1 16 -4 -6 -9 55 -8 70 2 12 7 37 -16 40 -38 2 -16 -19 -14 -41 5 -21
17 -43 21 -51 9 -3 -5 -11 -6 -17 -2 -7 4 -19 8 -27 8 -8 0 -22 5 -30 10 -8 5
-22 10 -30 10 -8 0 -20 4 -27 8 -6 4 -15 3 -18 -3 -5 -8 -12 -7 -22 2 -9 7
-24 13 -33 13 -9 0 -24 6 -33 14 -10 7 -17 10 -17 7 0 -4 -6 -4 -12 1 -7 4
-20 8 -29 8 -9 0 -25 7 -35 16 -17 13 -34 17 -49 9 -13 -7 -31 -5 -42 3 -7 5
-13 6 -13 2 0 -5 -9 0 -20 10 -11 10 -20 15 -20 10 0 -4 -7 -1 -17 6 -9 8 -23
14 -32 14 -9 0 -23 5 -31 10 -21 13 -39 15 -46 4 -3 -6 -11 -5 -20 2 -8 6 -14
8 -14 4 0 -4 -7 -2 -15 5 -8 7 -15 9 -15 5 0 -4 -7 -2 -15 5 -8 7 -15 9 -15 5
0 -5 -8 -1 -17 7 -10 9 -26 14 -35 13 -10 -2 -21 2 -25 7 -3 6 -2 8 4 5 5 -4
23 7 38 23 27 28 30 29 47 14 9 -9 15 -21 12 -26z m55 -24 c-6 -8 -15 -11 -21
-8 -5 3 -4 12 3 20 7 9 8 14 3 13 -18 -3 -25 1 -19 12 5 7 14 4 26 -7 14 -13
16 -20 8 -30z m45 5 c-3 -5 -10 -6 -16 -3 -7 4 -8 2 -4 -5 6 -9 11 -9 22 0 8
6 14 9 14 5 0 -3 0 -9 0 -13 0 -9 -40 -12 -53 -5 -5 2 -1 12 9 23 16 18 40 17
28 -2z m81 -38 c-3 -3 -12 -6 -21 -7 -13 -2 -13 0 -2 14 7 9 8 14 3 9 -11 -9
-46 22 -39 35 4 5 19 -3 35 -18 16 -15 26 -30 24 -33z m95 -25 c-5 -5 -17 -11
-26 -12 -13 -2 -13 0 2 17 10 11 14 20 9 19 -19 -4 -26 0 -20 11 5 7 14 4 26
-7 13 -12 16 -21 9 -28z m44 3 c-3 -5 -10 -6 -16 -3 -7 4 -8 2 -4 -5 6 -9 11
-9 22 0 8 6 14 9 14 5 0 -3 0 -9 0 -13 0 -9 -40 -12 -53 -5 -5 2 -1 12 9 23
16 18 40 17 28 -2z m60 -21 c-3 -5 -14 -2 -25 8 -10 9 -16 21 -13 26 3 5 14 2
25 -8 10 -9 16 -21 13 -26z m55 -25 c-7 -8 -16 -10 -23 -4 -6 4 -19 7 -30 5
-16 -2 -16 0 5 22 21 22 24 23 41 7 14 -12 15 -19 7 -30z m60 -19 c-6 -8 -16
-11 -23 -7 -6 4 -14 8 -18 9 -5 1 -11 2 -15 3 -3 0 2 10 12 21 17 19 19 19 37
4 13 -13 15 -20 7 -30z m-3309 -339 l0 -365 -75 0 -75 0 0 365 0 365 75 0 75
0 0 -365z m210 0 l0 -365 -75 0 -75 0 0 365 0 365 75 0 75 0 0 -365z m650 300
c0 -58 2 -65 20 -65 18 0 20 -7 20 -60 0 -53 -2 -60 -20 -60 -19 0 -20 -7 -20
-186 0 -177 1 -186 20 -191 17 -4 20 -14 20 -54 l0 -48 -44 -6 c-24 -4 -58 -4
-75 0 -58 12 -61 27 -61 267 0 211 -1 218 -20 218 -20 0 -22 7 -22 75 0 42 1
45 22 45 18 0 20 7 20 65 l0 65 70 0 70 0 0 -65z m240 -21 l0 -86 28 30 c55
59 148 47 177 -22 21 -49 22 -451 1 -499 -19 -45 -48 -68 -95 -74 -38 -5 -44
-2 -76 31 l-35 37 0 -31 0 -31 -72 3 -73 3 -1 355 c-1 195 1 358 3 363 2 4 35
7 74 7 l69 0 0 -86z m860 21 c0 -58 2 -65 20 -65 18 0 20 -7 20 -60 0 -53 -2
-60 -20 -60 -19 0 -20 -7 -20 -186 0 -177 1 -186 20 -191 17 -4 20 -14 20 -54
l0 -48 -44 -6 c-59 -9 -114 9 -127 42 -5 13 -9 119 -9 234 0 202 -1 209 -20
209 -18 0 -20 7 -20 60 0 53 2 60 20 60 18 0 20 7 20 65 l0 65 70 0 70 0 0
-65z m1394 44 c-3 -5 -10 -6 -16 -3 -7 4 -8 2 -4 -5 6 -8 12 -9 20 -2 17 14
29 1 15 -15 -6 -8 -16 -11 -23 -7 -6 4 -14 8 -18 9 -5 1 -11 2 -15 3 -3 0 2
10 12 21 17 19 41 18 29 -1z m60 -20 c-3 -5 -10 -7 -15 -3 -5 3 -7 10 -3 15 3
5 2 9 -3 8 -17 -3 -24 1 -18 12 5 7 13 4 26 -7 10 -9 16 -21 13 -25z m55 -25
c-6 -8 -16 -11 -23 -7 -6 4 -23 8 -38 9 -39 2 -40 3 -33 14 5 8 11 8 19 1 10
-8 18 -5 31 9 17 19 19 19 37 4 13 -13 15 -20 7 -30z m66 -14 c-3 -5 -43 -6
-64 -1 -2 1 4 10 14 21 17 19 19 19 36 4 10 -9 17 -20 14 -24z m39 -1 c-3 -5
-10 -7 -15 -3 -5 3 -7 10 -3 15 3 5 10 7 15 3 5 -3 7 -10 3 -15z m40 0 c-3 -5
-10 -7 -15 -3 -5 3 -7 10 -3 15 3 5 10 7 15 3 5 -3 7 -10 3 -15z m-4531 -32
c18 -8 38 -22 46 -31 13 -16 16 -15 40 8 54 51 149 39 186 -24 19 -33 20 -54
23 -302 l3 -268 -75 0 -76 0 0 250 c0 223 -2 251 -16 257 -9 3 -24 2 -33 -4
-14 -9 -16 -43 -19 -257 l-2 -246 -75 0 -75 0 -2 252 c-3 241 -4 253 -22 256
-41 8 -46 -18 -46 -270 l0 -238 -75 0 -75 0 0 310 0 310 70 0 c68 0 70 -1 70
-25 0 -28 17 -34 27 -9 6 16 56 43 81 44 7 0 27 -6 45 -13z m631 -15 c16 -9
38 -30 50 -45 20 -27 21 -42 24 -293 l3 -264 -71 0 c-68 0 -70 1 -70 25 0 28
-15 34 -24 10 -3 -8 -21 -23 -40 -32 -30 -14 -41 -15 -76 -4 -22 6 -47 23 -56
36 -22 33 -33 130 -23 195 11 71 50 109 143 140 l67 22 -3 56 c-3 53 -5 57
-28 57 -21 0 -26 -5 -28 -32 l-3 -33 -68 0 c-37 0 -70 2 -73 5 -2 3 -2 27 2
55 12 90 82 135 195 124 28 -3 63 -13 79 -22z m840 0 c60 -35 71 -62 74 -187
l4 -114 -109 -3 -108 -3 -3 -81 c-2 -66 1 -85 14 -98 9 -9 21 -15 28 -13 18 6
36 49 36 90 l0 37 70 0 70 0 0 -42 c0 -107 -41 -169 -122 -189 -92 -22 -177 4
-214 65 -16 27 -19 56 -22 220 -4 217 -1 244 34 286 49 57 176 74 248 32z
m1105 3 c62 -31 81 -82 81 -211 l0 -94 -110 0 -110 0 0 -84 c0 -64 4 -88 16
-100 31 -32 52 -10 61 63 l6 51 70 0 70 0 -6 -60 c-11 -125 -63 -175 -182
-175 -86 0 -127 21 -155 80 -18 37 -20 62 -20 239 0 207 4 229 48 269 49 44
167 56 231 22z m-1203 -4314 c46 -21 82 -71 91 -125 12 -76 -60 -162 -145
-173 -85 -11 -180 84 -169 169 10 79 83 148 157 148 14 0 43 -9 66 -19z m439
-164 c128 -72 123 -248 -9 -311 -112 -53 -246 34 -246 159 0 130 143 216 255
152z m-882 -11 c43 -18 95 -78 102 -120 9 -47 -24 -119 -67 -146 -53 -32 -91
-35 -142 -10 -90 43 -118 145 -59 218 30 38 85 72 116 72 10 0 32 -6 50 -14z
m-1879 -67 c-3 -5 -9 -7 -14 -4 -4 3 -13 -2 -20 -10 -7 -8 -9 -15 -5 -15 5 0
0 -9 -9 -19 -18 -19 -31 -21 -53 -8 -6 4 -14 3 -17 -2 -4 -5 -14 -8 -24 -6 -9
1 -27 -7 -40 -19 -13 -11 -32 -21 -43 -21 -10 0 -18 -3 -16 -6 6 -15 -25 -36
-50 -34 -16 1 -38 -7 -50 -18 -13 -11 -23 -17 -23 -13 0 5 -7 3 -15 -4 -8 -7
-12 -17 -8 -24 4 -6 0 -5 -9 2 -10 8 -19 9 -22 3 -4 -5 -15 -8 -25 -6 -11 2
-29 -7 -41 -20 -12 -13 -30 -22 -40 -20 -10 2 -26 -5 -36 -16 -9 -10 -14 -19
-9 -19 4 0 2 -6 -4 -14 -7 -8 -21 -13 -31 -11 -10 2 -24 -3 -30 -10 -6 -7 -20
-12 -30 -10 -11 2 -22 -1 -25 -6 -4 -5 -10 -7 -15 -4 -5 3 -11 1 -15 -4 -3 -5
-14 -8 -24 -6 -11 2 -27 -5 -37 -16 -13 -15 -20 -16 -31 -7 -11 9 -13 8 -11
-2 2 -8 -1 -14 -7 -15 -17 -1 -36 -16 -30 -25 3 -5 1 -11 -4 -14 -5 -4 -13 -2
-16 4 -5 8 -11 7 -21 -1 -8 -6 -14 -8 -14 -3 0 4 -12 -3 -27 -17 -16 -13 -10
-5 11 18 27 29 43 40 51 33 8 -7 21 0 40 20 19 20 32 27 40 20 8 -7 21 0 40
20 20 21 32 27 40 20 8 -7 18 -4 30 10 12 14 22 17 30 10 8 -7 20 -1 40 20 19
20 32 27 40 20 8 -7 21 0 40 20 20 21 32 27 40 20 8 -7 18 -4 30 10 12 14 22
17 30 10 8 -7 20 -1 40 20 19 20 32 27 40 20 8 -7 20 0 40 20 25 26 54 33 39
9 -3 -5 -10 -6 -16 -3 -7 5 -8 2 -3 -5 5 -9 20 -1 50 29 28 28 45 38 50 30 5
-8 14 -5 30 10 16 15 25 18 30 10 5 -8 18 -2 39 19 22 21 35 28 42 21 7 -7 16
-4 29 10 17 19 41 18 29 -1z m1734 -381 c78 -47 88 -157 20 -220 -82 -77 -208
-40 -237 70 -20 73 27 149 107 172 34 10 68 3 110 -22z m1182 -14 c104 -62 61
-224 -60 -224 -90 0 -149 102 -104 179 34 58 108 78 164 45z m-1019 -409 c94
-49 90 -194 -6 -239 -90 -43 -195 21 -195 119 0 102 109 167 201 120z m866
-16 c78 -74 65 -176 -29 -225 -81 -42 -188 27 -188 121 0 44 32 97 71 118 45
24 111 18 146 -14z m-446 -164 c88 -46 91 -171 6 -224 -115 -71 -247 61 -176
175 37 61 108 81 170 49z m417 -1096 l3 -137 -80 0 c-99 -1 -116 13 -116 95 0
48 4 58 29 80 23 20 37 24 63 20 32 -6 33 -5 33 32 0 45 6 53 40 49 l25 -3 3
-136z m-1131 109 c4 -7 26 -65 49 -128 23 -63 47 -115 54 -115 14 0 23 82 9
91 -5 3 -9 18 -9 34 0 47 39 70 121 70 53 0 69 -3 69 -14 0 -8 -4 -18 -10 -21
-5 -3 -10 -19 -10 -34 0 -35 -20 -52 -67 -60 -49 -8 -43 -25 9 -29 52 -4 78
-25 78 -63 0 -44 -41 -69 -111 -69 -70 0 -105 25 -95 66 6 22 3 24 -28 24 -29
0 -36 5 -45 30 -9 27 -14 30 -51 30 -37 0 -43 -3 -53 -30 -9 -25 -17 -30 -44
-30 l-33 0 42 118 c22 64 45 123 51 130 5 6 22 12 38 12 15 0 31 -6 36 -12z
m381 -125 c2 -51 7 -73 17 -77 38 -14 55 20 55 111 0 42 1 44 28 41 l27 -3 3
-96 3 -96 -85 -2 c-60 0 -87 3 -95 13 -6 8 -12 45 -12 82 -2 108 -2 106 29
102 26 -3 27 -5 30 -75z m326 56 c24 -19 26 -26 26 -98 l0 -78 -80 -1 c-75 -1
-81 0 -96 24 -31 47 12 94 87 94 20 0 29 4 26 13 -2 7 -22 12 -48 12 -38 0
-44 3 -47 22 -3 24 10 30 69 32 23 1 46 -7 63 -20z m122 11 c8 -8 19 -7 37 1
36 16 56 6 50 -25 -4 -19 -12 -26 -27 -26 -35 0 -46 -20 -46 -82 0 -58 0 -58
-30 -58 l-30 0 0 100 c0 90 2 100 18 100 10 0 23 -5 28 -10z m506 -17 c10 -11
21 -36 25 -56 l6 -37 -67 0 c-36 0 -66 -4 -66 -9 0 -20 32 -33 72 -29 37 3 43
0 43 -17 0 -18 -8 -20 -61 -23 -53 -2 -66 0 -90 21 -23 20 -27 32 -27 72 0 42
4 52 33 78 28 25 39 28 73 24 22 -3 48 -14 59 -24z m112 -141 c3 -5 0 -25 -6
-45 -9 -29 -17 -37 -35 -37 -26 0 -30 21 -13 64 9 25 43 36 54 18z m564 -405
c2 -116 0 -138 -13 -143 -8 -4 -21 -1 -29 5 -10 9 -20 9 -39 0 -56 -26 -107
20 -107 95 0 72 40 112 100 100 29 -6 30 -6 30 33 0 46 6 55 35 51 19 -3 20
-11 23 -141z m-2978 84 c0 -14 8 -21 28 -23 19 -2 28 -9 30 -25 3 -17 -2 -22
-25 -25 -26 -3 -28 -7 -31 -50 -2 -34 1 -48 10 -49 7 -1 20 -2 28 -3 9 0 15
-11 15 -26 0 -22 -5 -25 -41 -28 -55 -4 -73 18 -79 94 -2 32 -9 60 -14 62 -15
5 -14 29 3 39 7 4 18 18 25 31 15 28 51 30 51 3z m-315 -43 c18 -17 26 -34 28
-63 l2 -40 -64 -5 c-56 -4 -62 -7 -48 -19 12 -9 30 -12 57 -7 37 6 40 5 40
-18 0 -28 -16 -36 -77 -36 -36 0 -50 6 -74 29 -24 24 -29 38 -29 76 0 38 5 52
29 76 38 37 97 40 136 7z m183 16 c16 -5 22 -13 20 -28 -3 -18 -9 -21 -41 -19
-39 3 -51 -11 -18 -22 36 -11 71 -46 71 -70 0 -40 -36 -65 -95 -65 -54 0 -75
12 -75 43 0 17 5 18 50 12 56 -8 70 8 23 26 -35 13 -73 48 -73 66 0 8 11 25
25 38 24 25 64 32 113 19z m372 -12 c18 -15 22 -29 24 -92 2 -41 1 -81 -2 -87
-5 -15 -38 -17 -47 -3 -4 7 -12 7 -25 0 -26 -14 -73 -13 -93 3 -9 6 -19 24
-22 38 -10 40 21 70 78 76 60 7 57 28 -4 28 -38 0 -44 3 -47 22 -4 24 10 30
74 32 27 1 50 -6 64 -17z m124 9 c4 -5 20 -5 40 1 28 9 40 8 60 -5 22 -15 27
-15 55 -1 39 19 81 8 99 -27 7 -14 11 -52 10 -94 -3 -68 -4 -70 -30 -73 -16
-2 -28 0 -29 5 -1 4 -2 36 -3 71 -3 70 -16 93 -44 76 -12 -8 -18 -29 -22 -80
-5 -66 -6 -69 -32 -72 -27 -3 -27 -3 -30 70 -3 67 -5 73 -26 76 -27 4 -31 -6
-35 -83 -3 -59 -4 -60 -35 -63 l-32 -3 0 99 c0 54 3 102 7 105 9 10 41 8 47
-2z m440 -5 c40 -17 61 -61 53 -114 -19 -118 -197 -101 -197 18 0 53 14 78 53
95 41 18 50 18 91 1z m229 -5 c4 -4 5 -15 1 -24 -5 -13 -14 -16 -45 -11 -52 9
-50 -7 5 -33 24 -12 46 -30 48 -41 14 -52 -45 -91 -116 -78 -29 6 -36 11 -36
30 0 22 3 23 45 18 57 -6 58 9 3 40 -32 17 -44 30 -46 51 -4 33 11 54 41 60
27 6 89 -2 100 -12z m271 10 c18 -8 23 -15 19 -31 -5 -17 -11 -19 -38 -14 -28
5 -36 2 -50 -19 -19 -30 -11 -74 15 -82 10 -3 30 -3 44 1 23 5 26 3 26 -19 0
-20 -6 -27 -30 -32 -68 -15 -116 15 -127 79 -14 86 60 147 141 117z m185 -2
c42 -15 51 -35 51 -119 0 -54 -4 -72 -15 -76 -8 -4 -21 -1 -28 5 -10 7 -24 7
-50 -1 -46 -14 -84 1 -93 37 -12 48 9 67 88 80 28 4 36 9 31 21 -4 12 -15 15
-44 11 -60 -8 -82 26 -26 42 44 13 49 13 86 0z m140 -3 c10 -12 16 -12 41 1
35 17 50 11 50 -22 0 -18 -6 -24 -27 -27 -35 -4 -53 -38 -53 -101 0 -47 -1
-48 -27 -45 l-28 3 -3 94 c-2 69 1 97 10 103 18 11 24 10 37 -6z m169 -2 c8
-15 11 -15 34 0 28 18 62 11 54 -11 -3 -8 -6 -19 -6 -24 0 -5 -8 -9 -17 -9
-37 0 -48 -18 -53 -82 -5 -59 -7 -63 -30 -63 -25 0 -25 1 -28 89 -2 49 -1 95
2 103 7 18 33 16 44 -3z m246 2 c23 -9 37 -24 45 -46 19 -56 16 -59 -51 -62
-48 -2 -63 -7 -63 -18 0 -11 13 -15 53 -15 47 0 52 -2 52 -22 0 -45 -108 -43
-151 3 -45 48 -25 140 36 165 29 11 42 11 79 -5z m263 -3 c4 -9 1 -19 -5 -21
-7 -2 -12 -16 -12 -31 0 -35 -27 -60 -74 -68 -45 -7 -37 -23 12 -23 96 0 114
-97 25 -131 -87 -33 -177 18 -137 78 19 29 27 100 13 109 -15 9 -10 60 9 76
25 22 40 26 105 27 45 1 59 -3 64 -16z m184 -9 c16 -14 19 -32 19 -101 0 -73
-2 -83 -18 -83 -10 0 -22 4 -28 10 -6 6 -21 6 -42 -2 -45 -17 -86 5 -90 49 -4
38 19 63 59 64 50 2 54 4 54 19 0 11 -11 15 -42 13 -24 -1 -44 2 -44 8 -5 28
-2 34 21 40 36 11 89 3 111 -17z m115 16 c8 -8 19 -7 39 0 38 14 93 -4 101
-33 3 -13 4 -54 2 -92 -3 -67 -4 -70 -28 -70 -24 0 -25 3 -28 70 -3 78 -17 97
-52 75 -10 -6 -17 -32 -20 -77 -5 -65 -6 -68 -30 -68 -25 0 -25 1 -28 89 -2
49 -1 95 2 103 6 16 28 17 42 3z m559 -4 c40 -17 55 -42 55 -94 0 -75 -70
-121 -141 -92 -75 32 -78 154 -4 186 39 17 49 17 90 0z m320 0 c40 -17 55 -42
55 -94 0 -75 -70 -121 -141 -92 -75 32 -78 154 -4 186 39 17 49 17 90 0z m229
-6 c5 -5 6 -15 3 -23 -4 -12 -16 -14 -48 -10 -50 7 -47 -11 8 -33 99 -42 39
-140 -73 -120 -27 6 -34 12 -34 30 0 22 3 23 45 18 57 -6 59 10 5 38 -23 12
-43 27 -47 35 -10 28 6 63 34 74 29 11 92 5 107 -9z m-2639 -445 c0 -13 -8
-21 -24 -23 -28 -4 -46 11 -37 33 9 25 61 16 61 -10z m3 -176 c2 -105 1 -118
-19 -143 -17 -22 -28 -27 -58 -24 -29 2 -37 8 -39 26 -3 18 1 22 22 22 16 0
26 6 27 15 1 8 3 60 4 115 1 55 3 103 4 106 0 3 13 4 29 2 l27 -3 3 -116z
m199 106 c54 -38 46 -147 -14 -174 -108 -49 -202 80 -121 167 26 27 101 31
135 7z m258 5 c3 -6 -1 -13 -9 -16 -9 -3 -16 -18 -16 -33 0 -14 -4 -31 -8 -37
-11 -18 -49 -34 -77 -34 -15 0 -24 -4 -20 -10 3 -5 23 -10 43 -10 52 0 82 -23
82 -64 0 -46 -28 -68 -95 -74 -68 -6 -105 14 -105 56 0 16 5 33 11 39 14 14
20 91 8 99 -16 10 -10 53 11 74 16 16 33 20 94 20 41 0 78 -5 81 -10z m189
-21 c59 -69 15 -169 -74 -169 -60 0 -100 41 -100 103 0 65 33 97 99 97 43 0
53 -4 75 -31z m194 23 c7 -5 10 -16 6 -26 -5 -14 -14 -16 -45 -11 -46 8 -53
-9 -11 -27 44 -19 62 -39 62 -69 0 -38 -33 -59 -91 -59 -49 0 -76 18 -66 44 5
12 13 13 42 5 67 -19 76 11 11 40 -51 22 -65 51 -42 86 14 21 24 25 69 25 28
0 58 -4 65 -8z m110 -165 c-4 -28 -46 -30 -62 -4 -9 15 -7 21 8 32 25 19 58 2
54 -28z m102 2 c0 -24 -27 -36 -48 -22 -23 14 -25 29 -7 47 21 20 55 5 55 -25z
m106 16 c8 -20 -13 -45 -38 -45 -21 0 -33 22 -24 45 7 20 55 19 62 0z"/>
<path d="M5530 10645 c-7 -8 -17 -12 -23 -8 -5 3 -7 1 -4 -4 4 -6 1 -16 -7
-22 -21 -17 -7 -69 15 -55 5 3 7 10 3 15 -3 5 -10 6 -16 3 -7 -4 -8 -2 -4 5 4
6 12 8 18 5 7 -5 8 -2 3 6 -6 9 -4 11 6 5 12 -8 12 -6 0 9 -12 15 -12 17 0 14
8 -2 13 3 11 10 -1 8 2 11 8 7 6 -3 8 -10 6 -14 -3 -4 1 -8 9 -8 8 0 12 3 10
7 -2 4 2 7 10 7 11 0 12 -4 4 -13 -7 -8 -7 -14 1 -19 9 -6 13 0 12 16 -1 3 5
6 13 6 8 0 13 -5 12 -11 -1 -6 4 -10 11 -8 6 1 11 -1 11 -5 -3 -20 2 -24 15
-14 10 8 16 9 21 1 3 -6 12 -7 18 -3 7 4 5 -2 -3 -12 -12 -15 -12 -17 -1 -10
10 6 12 4 6 -6 -7 -11 -6 -12 7 -2 8 7 19 9 23 5 5 -4 4 0 0 8 -8 13 -7 13 8
1 16 -12 22 -8 18 12 -1 5 3 6 9 2 6 -3 8 -10 6 -14 -3 -4 1 -8 9 -8 8 0 12 3
10 7 -2 4 2 7 10 7 11 0 12 -4 4 -13 -7 -8 -7 -14 1 -19 9 -6 13 0 12 16 -1 3
5 6 13 6 8 0 13 -5 12 -11 -1 -6 4 -10 11 -8 6 1 11 -4 10 -10 -2 -7 3 -12 10
-10 6 1 11 -4 10 -10 -2 -7 3 -12 10 -10 6 1 11 -1 10 -5 -2 -5 2 -8 7 -8 6 0
9 4 7 9 -2 5 5 3 14 -5 15 -12 17 -12 9 0 -6 10 -4 12 5 6 9 -6 11 -4 5 6 -7
11 -6 12 6 2 12 -10 18 -10 29 0 8 7 11 8 7 1 -4 -7 1 -18 10 -25 14 -12 16
-12 8 1 -7 13 -6 13 7 2 12 -9 18 -10 23 -2 5 8 11 8 19 1 7 -6 17 -7 22 -3 4
4 2 -2 -6 -12 -12 -16 -12 -18 -1 -11 10 6 12 4 6 -6 -7 -11 -6 -12 7 -2 8 7
19 9 23 5 5 -4 4 0 0 8 -8 13 -7 13 8 1 12 -9 14 -17 7 -26 -14 -17 0 -27 18
-12 13 10 14 9 7 -2 -6 -10 -4 -12 5 -6 8 5 11 4 7 -2 -3 -5 0 -10 8 -10 8 0
12 3 10 7 -2 4 2 7 10 7 8 0 12 -3 10 -7 -2 -4 2 -7 10 -7 8 0 12 3 10 7 -2 4
2 7 10 7 8 0 12 -3 10 -7 -2 -4 2 -7 10 -7 8 0 11 5 8 10 -4 6 -1 7 7 2 9 -6
11 -4 5 6 -7 11 -6 12 7 2 8 -7 19 -9 24 -5 4 4 2 -2 -6 -12 -12 -16 -12 -18
-1 -11 10 6 12 4 6 -6 -7 -11 -6 -12 7 -2 8 7 19 9 23 5 5 -4 4 0 0 8 -7 12
-6 13 6 3 12 -10 18 -10 29 0 8 7 11 8 7 1 -4 -7 1 -18 10 -25 14 -12 16 -12
8 1 -7 12 -6 13 7 3 8 -7 19 -9 24 -5 4 4 2 -2 -6 -12 -12 -16 -12 -18 -1 -11
9 5 12 4 7 -3 -4 -7 1 -10 13 -7 19 3 22 -9 8 -32 -4 -6 -3 -14 3 -18 5 -3 10
-5 11 -3 4 11 4 77 1 73 -8 -8 -32 16 -27 26 3 4 -3 6 -14 4 -11 -2 -27 5 -37
16 -11 12 -21 16 -28 10 -15 -12 -28 -12 -45 2 -8 7 -21 12 -30 12 -9 0 -23 5
-31 10 -19 12 -42 16 -35 5 3 -4 -2 -13 -9 -19 -10 -8 -16 -9 -21 -1 -3 6 -10
8 -15 5 -9 -5 -28 14 -29 30 -1 6 -9 10 -18 10 -10 0 -25 5 -33 10 -8 5 -27
10 -41 10 -15 0 -36 8 -47 18 -12 11 -22 14 -26 8 -4 -5 -15 -8 -26 -6 -11 2
-22 -1 -26 -6 -8 -14 -35 10 -27 25 3 6 2 8 -2 3 -5 -4 -19 3 -32 15 -13 12
-23 18 -23 14 0 -5 -7 -3 -15 4 -8 7 -15 9 -15 5 0 -4 -6 -3 -12 2 -12 8 -30
10 -43 3 -14 -7 -32 -5 -45 5 -8 6 -22 11 -30 10 -8 -1 -25 8 -37 19 -13 11
-23 16 -23 12 0 -5 -7 -3 -15 4 -8 7 -15 9 -15 5 0 -5 -8 -1 -19 9 -16 15 -20
15 -31 1z m714 -216 c3 -3 -5 -5 -19 -5 -13 0 -22 3 -19 7 4 8 30 6 38 -2z"/>
<path d="M5535 10600 c3 -5 1 -11 -5 -15 -6 -4 -8 -10 -5 -15 3 -5 0 -12 -5
-15 -8 -5 -6 -13 6 -26 16 -18 40 -17 28 2 -3 5 -9 7 -14 4 -13 -8 -5 24 10
38 7 6 10 7 7 1 -3 -6 0 -11 8 -11 8 0 12 3 10 7 -2 4 2 7 10 7 8 0 12 -4 9
-8 -2 -4 5 -6 16 -4 11 2 18 0 15 -5 -3 -5 4 -7 15 -5 13 3 18 0 14 -7 -5 -7
-2 -8 7 -3 12 7 12 6 1 -7 -8 -10 -9 -19 -3 -22 5 -4 12 -2 15 3 4 5 14 8 24
6 9 -1 23 2 30 8 7 6 12 6 10 1 -2 -5 2 -9 7 -9 6 0 9 4 7 9 -2 5 3 4 11 -2 8
-7 18 -8 22 -4 5 4 5 1 0 -7 -5 -10 -4 -12 4 -7 6 4 10 4 9 -1 -2 -4 2 -8 7
-8 6 0 9 4 7 9 -2 5 3 4 11 -2 8 -7 17 -8 21 -4 4 4 6 0 4 -8 -2 -8 3 -14 10
-12 8 1 11 -2 6 -9 -5 -8 -3 -9 6 -4 8 5 11 4 6 -3 -3 -6 -2 -13 3 -16 5 -4
12 -2 15 2 3 5 -12 26 -33 46 -25 25 -41 34 -46 26 -5 -8 -11 -8 -22 2 -18 14
-81 19 -89 6 -3 -5 -12 -4 -20 3 -7 6 -12 15 -9 19 3 5 1 11 -4 14 -5 4 -13 1
-16 -5 -5 -7 -15 -3 -30 11 -15 15 -25 18 -30 10 -5 -8 -11 -8 -22 2 -17 14
-46 20 -38 8z m31 -12 c4 -7 4 -10 -1 -6 -4 4 -15 2 -24 -5 -14 -11 -14 -10
-2 6 16 20 18 21 27 5z"/>
<path d="M5476 10551 c-4 -5 -2 -12 3 -15 5 -4 12 -2 15 3 4 5 2 12 -3 15 -5
4 -12 2 -15 -3z"/>
<path d="M5561 10533 c21 -21 46 -23 33 -2 -3 5 -10 6 -16 3 -7 -4 -8 -2 -4 5
6 9 11 9 21 1 9 -8 15 -8 20 0 8 12 9 12 -38 14 l-37 2 21 -23z"/>
<path d="M5621 10536 c-8 -10 -6 -17 8 -30 12 -11 21 -14 26 -7 6 11 -1 15
-19 12 -5 -1 -4 4 3 13 7 8 8 17 3 20 -6 3 -15 0 -21 -8z"/>
<path d="M5675 10510 c-3 -4 4 -15 14 -24 13 -11 21 -14 26 -7 6 11 -1 15 -18
12 -5 -1 -6 3 -2 9 5 8 11 8 20 0 9 -8 15 -8 20 0 7 12 8 11 -28 14 -15 2 -30
0 -32 -4z"/>
<path d="M5746 10501 c-11 -12 -14 -21 -7 -26 10 -6 14 0 13 16 -1 3 5 6 13 6
8 0 12 -3 10 -7 -3 -4 4 -15 14 -24 13 -11 21 -14 26 -7 6 11 -1 15 -18 12 -5
-1 -6 3 -3 7 3 5 -3 17 -13 26 -16 15 -19 15 -35 -3z"/>
<path d="M5816 10492 c-7 -11 48 -64 57 -55 10 9 -24 44 -36 36 -5 -3 -7 -1
-3 5 3 6 2 13 -3 16 -5 4 -12 2 -15 -2z"/>
<path d="M5944 10479 c-3 -5 -9 -7 -13 -4 -5 2 -16 -4 -25 -14 -15 -16 -15
-19 3 -35 12 -11 21 -14 26 -7 6 10 0 14 -16 13 -3 -1 -6 5 -6 13 0 8 5 11 10
8 6 -3 7 -1 3 5 -7 11 19 11 30 -1 4 -4 14 -1 23 6 14 10 14 10 3 -5 -9 -11
-10 -18 -2 -23 10 -6 14 1 11 19 -1 5 4 5 11 -1 7 -6 21 -9 31 -8 14 3 16 0 7
-10 -7 -8 -7 -15 -1 -19 5 -4 12 -2 15 3 8 13 41 7 41 -7 0 -7 3 -12 8 -12 4
0 10 0 13 0 4 0 2 6 -5 13 -8 10 -8 16 1 25 12 12 -8 12 -29 -1 -11 -7 -26 6
-29 26 -1 4 -2 10 -3 13 0 4 -7 2 -13 -3 -16 -11 -28 -11 -48 2 -21 13 -39 15
-46 4z"/>
<path d="M5936 10452 c-3 -5 3 -17 13 -26 11 -10 22 -13 25 -8 3 5 -3 17 -13
26 -11 10 -22 13 -25 8z"/>
<path d="M5995 10430 c-3 -4 4 -15 14 -24 13 -11 21 -14 26 -7 6 11 -1 15 -19
12 -5 -1 -4 4 2 12 9 11 8 14 -4 14 -8 0 -17 -3 -19 -7z"/>
<path d="M6055 10410 c-3 -4 4 -15 14 -24 13 -11 21 -14 26 -7 6 11 -1 15 -19
12 -5 -1 -4 4 2 12 9 11 8 14 -4 14 -8 0 -17 -3 -19 -7z"/>
<path d="M6121 10396 c-8 -10 -6 -17 8 -30 12 -11 21 -14 26 -7 6 11 -1 15
-18 12 -5 -1 -6 3 -2 9 5 8 11 8 20 0 10 -8 15 -8 20 0 5 8 11 8 19 1 7 -6 16
-8 20 -4 4 4 18 8 31 9 19 1 22 -2 14 -12 -6 -8 -6 -14 0 -18 5 -4 12 -2 15 3
4 5 14 8 24 6 9 -1 23 2 30 8 7 6 12 6 11 1 -4 -21 2 -26 18 -13 14 12 16 12
8 0 -6 -10 -4 -12 5 -6 9 6 11 4 5 -5 -6 -9 -4 -11 6 -5 11 7 12 6 2 -7 -15
-18 -5 -32 13 -17 8 7 14 6 20 -2 4 -7 3 -9 -4 -5 -6 3 -13 2 -16 -3 -12 -19
12 -20 28 -2 11 13 14 21 7 26 -6 3 -11 3 -11 -1 0 -3 -7 -1 -15 6 -8 7 -12
17 -8 23 3 5 1 7 -4 4 -6 -4 -16 -1 -22 7 -11 13 -48 16 -67 3 -14 -8 -37 16
-26 29 4 4 0 4 -8 -2 -17 -11 -109 -13 -126 -1 -7 4 -17 1 -23 -7z"/>
<path d="M6176 10371 c-4 -5 -2 -12 3 -15 5 -4 12 -2 15 3 4 5 2 12 -3 15 -5
4 -12 2 -15 -3z"/>
<path d="M6215 10370 c-3 -4 4 -15 14 -24 13 -11 21 -14 26 -7 6 11 -1 15 -19
12 -5 -1 -4 4 2 12 9 11 8 14 -4 14 -8 0 -17 -3 -19 -7z"/>
<path d="M6275 10350 c-3 -4 4 -15 14 -24 13 -11 21 -14 26 -7 6 11 -1 15 -18
12 -5 -1 -6 3 -2 9 5 8 11 8 20 0 9 -8 15 -8 20 0 7 12 8 11 -28 14 -15 2 -30
0 -32 -4z"/>
<path d="M6341 10336 c-8 -10 -6 -17 8 -30 12 -11 21 -14 26 -7 6 11 -1 15
-19 12 -5 -1 -4 4 3 13 7 8 8 17 3 20 -6 3 -15 0 -21 -8z"/>
<path d="M5623 10686 c1 -5 -3 -10 -10 -11 -6 0 -14 -3 -17 -7 -3 -5 -3 -6 1
-3 3 3 12 0 20 -7 11 -9 13 -8 11 3 -2 8 2 13 8 12 6 -1 11 4 11 11 0 7 -6 13
-13 13 -7 0 -12 -5 -11 -11z"/>
<path d="M6391 10444 c6 -7 16 -11 21 -8 11 7 3 17 -18 20 -12 2 -13 -1 -3
-12z"/>
<path d="M6060 10575 c0 -2 6 -8 13 -14 10 -8 14 -7 14 2 0 8 -6 14 -14 14 -7
0 -13 -1 -13 -2z"/>
<path d="M6120 10555 c0 -2 6 -8 13 -14 10 -8 14 -7 14 2 0 8 -6 14 -14 14 -7
0 -13 -1 -13 -2z"/>
<path d="M3959 10313 c-6 -17 -9 -92 -7 -196 3 -178 9 -198 50 -176 17 9 18
25 16 202 -3 191 -3 192 -25 195 -17 3 -26 -4 -34 -25z"/>
<path d="M6280 10515 c0 -2 6 -8 13 -14 10 -8 14 -7 14 2 0 8 -6 14 -14 14 -7
0 -13 -1 -13 -2z"/>
<path d="M6346 10488 c3 -5 10 -6 15 -3 13 9 11 12 -6 12 -8 0 -12 -4 -9 -9z"/>
<path d="M2450 10132 c-38 -31 -41 -182 -3 -196 33 -13 43 12 43 115 0 55 -4
99 -9 99 -5 0 -19 -8 -31 -18z"/>
<path d="M3272 10328 c-14 -14 -16 -127 -2 -129 62 -8 65 -6 68 42 5 79 -29
124 -66 87z"/>
<path d="M4375 10317 c-4 -13 -5 -45 -3 -72 3 -46 5 -49 31 -50 42 -3 52 17
41 83 -8 52 -11 57 -36 60 -22 3 -29 -2 -33 -21z"/>
<path d="M903 5847 c1 -7 -4 -11 -11 -9 -8 1 -11 -2 -7 -8 5 -8 12 -7 22 2 9
7 18 12 20 11 1 -2 4 0 6 4 1 3 -6 7 -15 9 -10 1 -16 -3 -15 -9z"/>
<path d="M766 5788 c3 -5 10 -6 15 -3 13 9 11 12 -6 12 -8 0 -12 -4 -9 -9z"/>
<path d="M589 5703 c-13 -16 -12 -17 4 -4 9 7 17 15 17 17 0 8 -8 3 -21 -13z"/>
<path d="M466 5648 c3 -5 10 -6 15 -3 13 9 11 12 -6 12 -8 0 -12 -4 -9 -9z"/>
<path d="M383 5611 c1 -3 -1 -6 -4 -6 -4 0 -15 -7 -25 -16 -11 -9 -27 -15 -36
-14 -9 2 -23 -4 -30 -13 -11 -13 -11 -14 2 -7 8 6 22 10 30 10 8 0 22 5 30 10
8 5 24 10 34 10 11 0 20 7 21 16 2 9 -3 16 -11 16 -7 0 -12 -3 -11 -6z"/>
<path d="M246 5548 c3 -5 10 -6 15 -3 13 9 11 12 -6 12 -8 0 -12 -4 -9 -9z"/>
<path d="M3603 3802 c-22 -14 -27 -67 -8 -85 20 -21 29 -21 49 -1 39 38 2 114
-41 86z"/>
<path d="M2531 3808 c-13 -37 -11 -41 21 -36 22 3 24 6 16 36 -11 41 -23 41
-37 0z"/>
<path d="M2757 3814 c-12 -12 -8 -42 6 -47 21 -8 39 8 35 29 -3 19 -29 30 -41
18z"/>
<path d="M2748 3649 c-42 -24 -1 -57 48 -39 27 11 32 35 8 44 -22 8 -36 7 -56
-5z"/>
<path d="M3207 3733 c-14 -13 -7 -33 11 -33 19 0 42 18 42 32 0 10 -44 11 -53
1z"/>
<path d="M3837 3809 c-28 -16 -20 -29 18 -29 38 0 46 13 17 29 -11 6 -24 6
-35 0z"/>
<path d="M4480 3280 c-24 -45 5 -102 44 -87 11 4 16 18 16 45 0 58 -38 84 -60
42z"/>
<path d="M1217 3286 c-5 -12 1 -16 24 -16 20 0 29 4 27 13 -7 18 -45 20 -51 3z"/>
<path d="M1782 3219 c-13 -5 -20 -13 -17 -19 8 -13 42 -13 51 1 10 17 -9 28
-34 18z"/>
<path d="M2352 3288 c-7 -7 -12 -26 -12 -43 0 -35 15 -55 42 -55 35 0 51 66
22 94 -19 19 -36 20 -52 4z"/>
<path d="M3040 3216 c-10 -13 -9 -17 5 -22 19 -8 45 4 48 21 3 17 -39 17 -53
1z"/>
<path d="M3594 3289 c-9 -15 13 -27 41 -21 15 2 22 9 18 18 -6 17 -49 19 -59
3z"/>
<path d="M3804 3296 c-9 -24 4 -48 23 -44 12 2 18 12 18 28 0 29 -32 41 -41
16z"/>
<path d="M3783 3124 c-12 -32 53 -47 81 -18 23 22 11 34 -35 34 -27 0 -42 -5
-46 -16z"/>
<path d="M4023 3223 c-7 -2 -13 -11 -13 -19 0 -22 54 -14 58 9 3 17 -17 22
-45 10z"/>
<path d="M4708 3275 c-23 -51 20 -106 57 -75 32 26 8 100 -31 100 -8 0 -20
-11 -26 -25z"/>
<path d="M5036 3284 c-29 -28 -13 -94 22 -94 27 0 42 20 42 57 0 22 -6 36 -19
43 -25 13 -27 13 -45 -6z"/>
<path d="M2816 2777 c-13 -9 -17 -24 -14 -52 2 -33 7 -41 27 -43 29 -4 41 12
41 55 0 39 -28 59 -54 40z"/>
<path d="M3030 2785 c-16 -19 -5 -47 17 -43 22 4 29 43 9 51 -8 3 -20 -1 -26
-8z"/>
<path d="M3004 2615 c-9 -23 5 -35 40 -35 35 0 62 21 51 40 -10 16 -85 12 -91
-5z"/>
<path d="M3236 2764 c-10 -25 -7 -59 6 -72 33 -33 77 10 64 62 -5 20 -13 26
-35 26 -17 0 -31 -6 -35 -16z"/>
<path d="M969 5844 c-6 -8 -8 -14 -4 -14 5 0 0 -9 -9 -19 -10 -11 -26 -18 -37
-16 -10 2 -21 -1 -25 -6 -3 -6 -12 -5 -21 3 -19 16 -18 16 -51 -15 -15 -13
-35 -23 -44 -22 -16 3 -46 -22 -40 -34 1 -3 -11 -7 -28 -7 -16 -1 -32 -3 -35
-4 -3 -1 -11 -3 -17 -4 -7 0 -14 -7 -14 -13 -1 -7 -3 -16 -4 -20 -1 -5 -2 -12
-1 -17 1 -5 -4 -4 -12 2 -11 10 -17 9 -27 -3 -7 -8 -17 -12 -24 -8 -19 13 -30
10 -56 -13 -14 -12 -33 -20 -42 -19 -17 3 -56 -31 -58 -50 0 -5 -13 -10 -30
-9 -16 0 -28 -4 -27 -10 1 -6 -12 -11 -30 -10 -17 0 -31 -4 -30 -10 1 -5 -12
-10 -29 -11 -18 0 -41 -9 -53 -19 -12 -11 -21 -16 -21 -11 0 4 -7 2 -15 -5 -8
-7 -15 -9 -15 -5 0 4 -7 2 -15 -5 -8 -7 -13 -16 -10 -20 2 -4 -4 -15 -14 -24
-16 -15 -20 -15 -31 -1 -7 8 -17 12 -24 8 -6 -4 -14 -8 -18 -8 -5 0 -7 -3 -5
-6 1 -3 -4 -13 -11 -22 -8 -9 -9 -18 -3 -21 5 -4 13 -2 16 4 5 8 11 8 19 1 9
-8 20 -3 41 19 19 20 32 27 40 20 8 -7 21 0 40 20 19 20 32 27 40 20 8 -7 21
0 40 20 20 21 32 27 40 20 8 -7 18 -4 30 10 12 14 22 17 30 10 8 -7 20 -1 40
20 19 20 32 27 40 20 8 -7 21 0 40 20 19 20 32 27 40 20 8 -7 21 0 40 20 20
21 32 27 40 20 8 -7 18 -4 30 10 12 14 22 17 30 10 8 -7 20 -1 40 20 19 20 32
27 40 20 8 -7 21 0 40 20 20 21 32 27 40 20 8 -7 18 -4 30 10 12 14 22 17 30
10 8 -7 20 -1 40 20 20 21 32 27 40 20 14 -11 42 16 41 39 -1 19 -32 22 -47 5z
m32 -7 c-6 -8 -9 -16 -6 -19 3 -2 -1 -5 -8 -5 -8 0 -14 6 -14 13 0 7 4 11 8 8
4 -2 10 0 14 6 3 5 9 10 12 10 3 0 0 -6 -6 -13z m-131 -72 c-6 -7 -19 -12 -28
-10 -9 1 -27 -7 -40 -18 -27 -25 -49 -30 -49 -11 0 7 4 11 8 8 4 -2 10 0 14 6
4 6 10 8 14 5 5 -2 16 4 26 15 10 11 21 17 26 15 4 -3 10 -1 14 5 4 6 11 8 16
4 6 -4 6 -11 -1 -19z m44 17 c3 -5 -1 -9 -9 -9 -8 0 -12 4 -9 9 3 4 7 8 9 8 2
0 6 -4 9 -8z m-199 -82 c4 -6 1 -9 -7 -8 -7 2 -12 -2 -11 -7 1 -6 -9 -11 -21
-11 -12 0 -23 5 -23 12 0 7 8 11 18 9 10 -2 21 0 24 6 8 12 12 11 20 -1z
m-145 -75 c-6 -7 -19 -12 -28 -10 -9 1 -27 -7 -40 -18 -26 -24 -80 -33 -61
-11 6 8 15 12 19 9 5 -3 11 -1 15 5 4 6 10 8 14 5 5 -2 16 4 26 15 10 11 21
17 26 15 4 -3 10 -1 14 5 4 6 11 8 16 4 6 -4 6 -11 -1 -19z m-165 -84 c-9 -8
-36 -10 -30 -2 2 4 11 8 20 8 8 0 13 -3 10 -6z m-60 -20 c-9 -8 -36 -10 -30
-2 2 4 11 8 20 8 8 0 13 -3 10 -6z m-69 -30 c-21 -20 -71 -24 -55 -5 6 8 15
12 19 9 5 -3 11 -2 14 3 3 5 12 9 21 9 14 0 14 -2 1 -16z m-80 -26 c-4 -28
-43 -45 -43 -19 0 7 4 11 8 9 3 -3 12 2 19 10 16 19 19 19 16 0z m-99 -61 c0
-6 -7 -11 -16 -9 -9 1 -23 -3 -31 -9 -13 -9 -13 -9 -3 5 7 9 11 18 8 20 -2 3
6 5 19 5 12 0 23 -5 23 -12z"/>
</g>
</svg>
